<svg width="20" height="22" viewBox="0 0 20 22" fill="none" xmlns="http://www.w3.org/2000/svg">
<path d="M16.0896 6.80525C16.0896 3.36496 13.3022 0.577568 9.86192 0.577568C6.42163 0.577568 3.63424 3.36496 3.63424 6.80525C3.63424 8.88449 4.65378 10.7277 6.22074 11.8577C6.2107 11.8627 6.20316 11.8652 6.19814 11.8677C5.07565 12.3424 4.06868 13.0229 3.20232 13.8917C2.34098 14.7515 1.65523 15.7708 1.18335 16.8926C0.719071 17.9911 0.468503 19.1681 0.44507 20.3605C0.4444 20.3873 0.449101 20.414 0.458896 20.4389C0.468691 20.4639 0.483383 20.4866 0.502105 20.5058C0.520826 20.525 0.5432 20.5402 0.567906 20.5506C0.592613 20.5611 0.619153 20.5664 0.645963 20.5664H2.15015C2.25813 20.5664 2.34853 20.4785 2.35104 20.3705C2.40126 18.4319 3.17721 16.6164 4.55082 15.2402C5.96962 13.8164 7.85299 13.0329 9.86192 13.0329C13.3022 13.0329 16.0896 10.2455 16.0896 6.80525ZM9.86192 11.1244C7.47632 11.1244 5.54273 9.19085 5.54273 6.80525C5.54273 4.41964 7.47632 2.48605 9.86192 2.48605C12.2475 2.48605 14.1811 4.41964 14.1811 6.80525C14.1811 9.19085 12.2475 11.1244 9.86192 11.1244ZM12.4986 16.6741H19.1281C19.2386 16.6741 19.329 16.5837 19.329 16.4732V15.067C19.329 14.9565 19.2386 14.8661 19.1281 14.8661H14.6959L15.8812 13.3569C15.9085 13.3216 15.9235 13.2784 15.9239 13.2338C15.9239 13.1233 15.8335 13.0329 15.723 13.0329H13.8999C13.7768 13.0329 13.6613 13.0907 13.5835 13.1861L11.8633 15.3733C11.7528 15.514 11.6926 15.6897 11.6926 15.8705C11.6951 16.315 12.0542 16.6741 12.4986 16.6741ZM18.5254 18.2812H11.896C11.7855 18.2812 11.6951 18.3717 11.6951 18.4821V19.8884C11.6951 19.9989 11.7855 20.0893 11.896 20.0893H16.3282L15.1429 21.5985C15.1156 21.6337 15.1006 21.677 15.1002 21.7215C15.1002 21.832 15.1906 21.9224 15.3011 21.9224H17.1242C17.2472 21.9224 17.3628 21.8647 17.4406 21.7693L19.1608 19.582C19.2712 19.4414 19.3315 19.2656 19.3315 19.0848C19.329 18.6403 18.9699 18.2812 18.5254 18.2812Z" fill="#FF6B72"/>
</svg>
